<svg version="1.1" id="Layer_1" xmlns="http://www.w3.org/2000/svg" xmlns:xlink="http://www.w3.org/1999/xlink" x="0px" y="0px"
	 width="100%" viewBox="0 0 612 612" enable-background="new 0 0 612 612" xml:space="preserve">
<path fill="#000000" opacity="1.000000" stroke="none" 
	d="
M272.000000,613.000000 
	C181.333344,613.000000 91.166702,613.000000 1.000036,613.000000 
	C1.000024,409.000061 1.000024,205.000107 1.000012,1.000118 
	C204.999924,1.000079 408.999847,1.000079 612.999817,1.000039 
	C612.999878,204.999878 612.999878,408.999756 612.999939,612.999817 
	C499.500000,613.000000 386.000000,613.000000 272.000000,613.000000 
M377.082092,393.554565 
	C377.374329,393.717621 377.666565,393.880676 378.210907,394.664093 
	C389.904510,406.082489 401.598145,417.500885 413.825195,429.440186 
	C413.825195,347.010468 413.825195,265.695374 413.825195,184.097443 
	C393.570068,184.097443 373.774231,184.054153 353.979645,184.187531 
	C352.544739,184.197205 350.749359,185.150726 349.744171,186.239990 
	C336.876709,200.183472 324.122833,214.231842 310.768524,228.604935 
	C294.662598,246.073975 278.556671,263.542999 262.229279,281.252258 
	C241.480072,261.042450 221.033051,241.126923 200.016174,220.656357 
	C200.016174,270.587646 200.016174,319.617035 200.016174,368.611694 
	C220.812927,368.611694 241.248627,368.611694 262.231537,368.611694 
	C262.231537,339.975189 262.231537,311.609314 262.231537,282.168304 
	C268.686523,287.967743 274.305176,293.015778 279.970337,298.744720 
	C288.449402,307.785065 296.928467,316.825378 305.537201,326.003906 
	C307.754883,323.911621 308.631348,323.180023 309.397949,322.347260 
	C322.195221,308.445404 334.954529,294.508423 347.810028,280.660767 
	C348.874695,279.513916 350.570435,278.952850 351.796326,279.019409 
	C351.756866,307.930237 351.704956,336.841095 351.722229,365.751892 
	C351.722931,366.945984 352.372284,368.139709 352.924011,369.958588 
	C355.550507,372.375854 358.177032,374.793091 361.013611,377.842407 
	C363.631531,380.274628 366.249451,382.706848 369.098724,385.751160 
	C370.546051,387.060760 371.993347,388.370392 373.575012,390.093750 
	C373.744598,390.355133 373.983948,390.505646 374.561157,391.110718 
	C375.360107,391.754669 376.159058,392.398651 377.082092,393.554565 
z"/>
<path fill="#D4A75D" opacity="1.000000" stroke="none" 
	d="
M279.923859,298.063843 
	C274.305176,293.015778 268.686523,287.967743 262.231537,282.168304 
	C262.231537,311.609314 262.231537,339.975189 262.231537,368.611694 
	C241.248627,368.611694 220.812927,368.611694 200.016174,368.611694 
	C200.016174,319.617035 200.016174,270.587646 200.016174,220.656357 
	C221.033051,241.126923 241.480072,261.042450 262.229279,281.252258 
	C278.556671,263.542999 294.662598,246.073975 311.224091,228.622635 
	C311.794403,228.767853 311.909149,228.895386 312.061768,229.327759 
	C309.299835,233.304184 306.814758,237.282120 303.617432,240.566681 
	C299.949646,244.334503 295.362854,247.309860 295.851990,252.654495 
	C290.848450,256.451233 285.148529,259.129211 282.105682,263.611145 
	C279.709869,267.140045 277.218811,269.799530 273.977173,272.350739 
	C271.267853,274.483002 269.335693,277.602783 267.059387,280.285278 
	C267.718842,280.295166 268.378326,280.305023 269.037811,280.314911 
	C270.454163,282.862366 271.825287,285.436646 273.310150,287.943481 
	C273.869446,288.887695 274.801056,290.488556 275.378510,290.411316 
	C282.454620,289.464813 279.960632,294.520203 280.130035,297.906860 
	C280.061249,297.959106 279.923859,298.063843 279.923859,298.063843 
z"/>
<path fill="#D4A75D" opacity="1.000000" stroke="none" 
	d="
M311.509888,228.446960 
	C324.122833,214.231842 336.876709,200.183472 349.744171,186.239990 
	C350.749359,185.150726 352.544739,184.197205 353.979645,184.187531 
	C373.774231,184.054153 393.570068,184.097443 413.825195,184.097443 
	C413.825195,265.695374 413.825195,347.010468 413.825195,429.440186 
	C401.598145,417.500885 389.904510,406.082489 378.106445,394.325623 
	C378.001984,393.987152 378.038788,393.926208 378.406982,393.950836 
	C383.273895,396.788086 389.860931,398.622345 391.751129,402.657013 
	C394.201996,407.888428 398.528900,410.647095 401.802734,414.598297 
	C403.202881,416.288147 406.645660,416.761444 409.171692,416.790344 
	C410.084290,416.800751 411.798462,413.914886 411.836578,412.319366 
	C412.089661,401.725739 411.994080,391.123596 411.998322,380.524231 
	C412.004517,365.075409 411.999115,349.626587 411.999054,334.177765 
	C411.998932,300.735443 412.022614,267.293121 411.967773,233.850876 
	C411.961243,229.882950 411.373383,225.917801 411.318817,221.947739 
	C411.177521,211.664215 411.087372,201.377838 411.176147,191.094315 
	C411.213806,186.730331 408.984070,185.913635 405.198273,185.946136 
	C389.702271,186.079193 374.204193,186.046906 358.707458,185.966843 
	C355.210480,185.948792 352.351349,186.348587 351.869324,190.642090 
	C351.793884,191.313858 351.036743,192.376846 350.479919,192.456589 
	C342.257172,193.634064 339.984192,200.465057 336.859161,206.524734 
	C336.434784,207.347565 335.830933,208.444473 335.081665,208.676514 
	C327.483948,211.029388 324.405609,217.784790 320.505249,223.646057 
	C319.228027,225.565491 318.851196,228.084091 317.884430,230.835739 
	C316.299530,230.345474 314.161743,229.684189 312.023926,229.022903 
	C311.909149,228.895386 311.794403,228.767853 311.509888,228.446960 
z"/>
<path fill="#D4A75D" opacity="1.000000" stroke="none" 
	d="
M351.972961,278.119629 
	C350.570435,278.952850 348.874695,279.513916 347.810028,280.660767 
	C334.954529,294.508423 322.195221,308.445404 309.397949,322.347260 
	C308.631348,323.180023 307.754883,323.911621 305.537201,326.003906 
	C296.928467,316.825378 288.449402,307.785065 279.947083,298.404297 
	C279.923859,298.063843 280.061249,297.959106 280.432556,298.028259 
	C282.905090,298.699524 285.006256,299.301636 286.567352,299.748962 
	C289.301849,302.734833 291.848999,305.516113 294.425354,308.329315 
	C295.096893,307.875336 295.766815,307.422394 297.515594,306.240143 
	C295.062134,314.830811 300.406952,313.552673 305.183777,313.224213 
	C301.087128,316.580902 301.541046,317.951202 308.279633,321.828583 
	C310.939789,316.867462 313.551788,311.903076 316.280304,307.003601 
	C316.711517,306.229309 317.620911,305.678345 318.393158,305.145782 
	C320.096954,303.970795 322.055054,303.090332 323.552673,301.704254 
	C328.393768,297.223755 333.221924,292.709808 337.759399,287.928162 
	C340.436890,285.106598 342.638855,281.813446 344.890594,278.616791 
	C346.031738,276.996765 346.809082,275.120514 347.750885,273.360107 
	C349.498566,274.910065 351.246216,276.460052 352.738068,278.031921 
	C352.312469,278.075714 352.142731,278.097656 351.972961,278.119629 
z"/>
<path fill="#CEAB71" opacity="1.000000" stroke="none" 
	d="
M351.884644,278.569519 
	C352.142731,278.097656 352.312469,278.075714 352.740173,278.499451 
	C353.033264,308.939789 353.068390,338.934479 353.003967,369.026917 
	C352.904388,369.124634 352.719452,369.333588 352.719452,369.333588 
	C352.372284,368.139709 351.722931,366.945984 351.722229,365.751892 
	C351.704956,336.841095 351.756866,307.930237 351.884644,278.569519 
z"/>
<path fill="#D4A75D" opacity="1.000000" stroke="none" 
	d="
M368.867401,385.139069 
	C366.249451,382.706848 363.631531,380.274628 360.986877,377.444397 
	C360.960144,377.046387 361.117096,376.882782 361.545410,376.912231 
	C368.778717,377.135193 368.778717,377.135193 369.071777,384.932129 
	C369.003571,385.001038 368.867401,385.139069 368.867401,385.139069 
z"/>
<path fill="#D4A75D" opacity="1.000000" stroke="none" 
	d="
M360.881836,377.128357 
	C358.177032,374.793091 355.550507,372.375854 352.821716,369.646088 
	C352.719452,369.333588 352.904388,369.124634 353.344666,369.114197 
	C354.590576,369.241119 355.462341,369.648987 356.190826,369.470856 
	C360.143005,368.504395 361.258484,370.411163 361.018219,373.931000 
	C360.951508,374.908112 361.078796,375.898499 361.117065,376.882782 
	C361.117096,376.882782 360.960144,377.046387 360.881836,377.128357 
z"/>
<path fill="#D4A75D" opacity="1.000000" stroke="none" 
	d="
M373.440643,389.680023 
	C371.993347,388.370392 370.546051,387.060760 368.983063,385.445129 
	C368.867401,385.139069 369.003571,385.001038 369.425293,384.977722 
	C371.240662,386.296387 372.634277,387.638336 373.878540,389.153076 
	C373.729187,389.325867 373.440643,389.680023 373.440643,389.680023 
z"/>
<path fill="#D4A75D" opacity="1.000000" stroke="none" 
	d="
M376.958008,393.042603 
	C376.159058,392.398651 375.360107,391.754669 374.611206,390.688171 
	C374.661285,390.265656 375.020050,389.974030 375.316040,390.103271 
	C376.097382,391.142181 376.582733,392.051849 377.039429,392.980225 
	C377.010742,392.998932 376.958008,393.042603 376.958008,393.042603 
z"/>
<path fill="#D4A75D" opacity="1.000000" stroke="none" 
	d="
M374.477173,390.405457 
	C373.983948,390.505646 373.744598,390.355133 373.507812,389.886902 
	C373.440643,389.680023 373.729187,389.325867 374.056824,389.305389 
	C374.614868,389.497498 374.826721,389.727203 375.020050,389.974030 
	C375.020050,389.974030 374.661285,390.265656 374.477173,390.405457 
z"/>
<path fill="#D4A75D" opacity="1.000000" stroke="none" 
	d="
M377.980408,394.015442 
	C377.666565,393.880676 377.374329,393.717621 377.020050,393.298584 
	C376.958008,393.042603 377.010742,392.998932 377.217957,393.123718 
	C377.653259,393.453094 377.857788,393.679016 378.038788,393.926208 
	C378.038788,393.926208 378.001984,393.987152 377.980408,394.015442 
z"/>
<path fill="#D5A75C" opacity="1.000000" stroke="none" 
	d="
M378.406982,393.950836 
	C377.857788,393.679016 377.653259,393.453094 377.246643,393.105011 
	C376.582733,392.051849 376.097382,391.142181 375.316040,390.103271 
	C374.826721,389.727203 374.614868,389.497498 374.206177,389.132629 
	C372.634277,387.638336 371.240662,386.296387 369.493530,384.908813 
	C368.778717,377.135193 368.778717,377.135193 361.545410,376.912231 
	C361.078796,375.898499 360.951508,374.908112 361.018219,373.931000 
	C361.258484,370.411163 360.143005,368.504395 356.190826,369.470856 
	C355.462341,369.648987 354.590576,369.241119 353.444214,369.016479 
	C353.068390,338.934479 353.033264,308.939789 352.996033,278.477539 
	C351.246216,276.460052 349.498566,274.910065 347.750885,273.360107 
	C346.809082,275.120514 346.031738,276.996765 344.890594,278.616791 
	C342.638855,281.813446 340.436890,285.106598 337.759399,287.928162 
	C333.221924,292.709808 328.393768,297.223755 323.552673,301.704254 
	C322.055054,303.090332 320.096954,303.970795 318.393158,305.145782 
	C317.620911,305.678345 316.711517,306.229309 316.280304,307.003601 
	C313.551788,311.903076 310.939789,316.867462 308.279633,321.828583 
	C301.541046,317.951202 301.087128,316.580902 305.183777,313.224213 
	C300.406952,313.552673 295.062134,314.830811 297.515594,306.240143 
	C295.766815,307.422394 295.096893,307.875336 294.425354,308.329315 
	C291.848999,305.516113 289.301849,302.734833 286.567352,299.748962 
	C285.006256,299.301636 282.905090,298.699524 280.501343,297.976013 
	C279.960632,294.520203 282.454620,289.464813 275.378510,290.411316 
	C274.801056,290.488556 273.869446,288.887695 273.310150,287.943481 
	C271.825287,285.436646 270.454163,282.862366 269.037811,280.314911 
	C268.378326,280.305023 267.718842,280.295166 267.059387,280.285278 
	C269.335693,277.602783 271.267853,274.483002 273.977173,272.350739 
	C277.218811,269.799530 279.709869,267.140045 282.105682,263.611145 
	C285.148529,259.129211 290.848450,256.451233 295.851990,252.654495 
	C295.362854,247.309860 299.949646,244.334503 303.617432,240.566681 
	C306.814758,237.282120 309.299835,233.304184 312.061768,229.327759 
	C314.161743,229.684189 316.299530,230.345474 317.884430,230.835739 
	C318.851196,228.084091 319.228027,225.565491 320.505249,223.646057 
	C324.405609,217.784790 327.483948,211.029388 335.081665,208.676514 
	C335.830933,208.444473 336.434784,207.347565 336.859161,206.524734 
	C339.984192,200.465057 342.257172,193.634064 350.479919,192.456589 
	C351.036743,192.376846 351.793884,191.313858 351.869324,190.642090 
	C352.351349,186.348587 355.210480,185.948792 358.707458,185.966843 
	C374.204193,186.046906 389.702271,186.079193 405.198273,185.946136 
	C408.984070,185.913635 411.213806,186.730331 411.176147,191.094315 
	C411.087372,201.377838 411.177521,211.664215 411.318817,221.947739 
	C411.373383,225.917801 411.961243,229.882950 411.967773,233.850876 
	C412.022614,267.293121 411.998932,300.735443 411.999054,334.177765 
	C411.999115,349.626587 412.004517,365.075409 411.998322,380.524231 
	C411.994080,391.123596 412.089661,401.725739 411.836578,412.319366 
	C411.798462,413.914886 410.084290,416.800751 409.171692,416.790344 
	C406.645660,416.761444 403.202881,416.288147 401.802734,414.598297 
	C398.528900,410.647095 394.201996,407.888428 391.751129,402.657013 
	C389.860931,398.622345 383.273895,396.788086 378.406982,393.950836 
z"/>
</svg>